<svg width="16" height="16" viewBox="0 0 16 16" fill="none" xmlns="http://www.w3.org/2000/svg">
<path d="M2 14V10.8333L7.96667 4.86667L7 3.93334L7.96667 3L9.23333 4.26667L11.3 2.2C11.3556 2.14445 11.425 2.1 11.5083 2.06667C11.5917 2.03334 11.6778 2.01667 11.7667 2.01667C11.8556 2.01667 11.9389 2.03334 12.0167 2.06667C12.0944 2.1 12.1667 2.14445 12.2333 2.2L13.8 3.76667C13.8556 3.83334 13.9 3.90556 13.9333 3.98334C13.9667 4.06111 13.9833 4.14445 13.9833 4.23334C13.9833 4.32223 13.9667 4.40834 13.9333 4.49167C13.9 4.575 13.8556 4.64445 13.8 4.7L11.75 6.75L13.0167 8.05L12.0667 9L11.1333 8.03334L5.16667 14H2ZM3.33333 12.6667H4.63333L10.1667 7.1L8.9 5.83334L3.33333 11.3667V12.6667ZM10.7833 5.83334L12.3833 4.23334L11.7667 3.61667L10.1667 5.21667L10.7833 5.83334Z" fill="#333333"/>
</svg>
